<?xml version="1.0" encoding="UTF-8"?><svg id="b" xmlns="http://www.w3.org/2000/svg" viewBox="0 0 123.92 47.71"><g id="c"><line x1="55.91" y1="17.67" x2="68.29" y2="30.04" fill="none" stroke="#aab4c8" stroke-linecap="round" stroke-miterlimit="10"/><line x1="68.29" y1="17.67" x2="55.91" y2="30.04" fill="none" stroke="#aab4c8" stroke-linecap="round" stroke-miterlimit="10"/><g id="d"><g id="e"><g id="f"><path d="M44.98.15c-.82-.38-1.77-.03-2.15.79-.39.83-10.35,24.89-10.35,24.89-.33.75-.54.68-.54-.11,0,0,.04-8.38.08-15.29.04-3.77-1.83-5.87-4.44-6.3-1.2-.18-2.42.1-3.44.75-1.05.74-1.9,1.73-2.43,2.9-.79,1.54-5.66,15.73-5.66,15.73-.25.75-.5.72-.5-.08,0,0-.14-6.13-.29-7.56-.21-2.22-.72-5.84-3.58-6.01-2.69-.18-3.9,3.15-4.58,5.2-.46,1.36-2.69,8.7-2.69,8.7l-.33.75h0c-.11.39-.29.39-.39,0l-.18-.68c-.19-.73-.41-1.44-.68-2.15-.1-.39-.29-.75-.54-1.08-.36-.39-.93-.54-1.43-.36-.48.16-.82.6-.87,1.1,0,.43.04.87.11,1.29.19,1.29,1.12,6.38,1.68,7.48s1.79,1.68,2.94,1.08c1.08-.58,1.58-1.9,2.01-2.94.54-1.33,3.3-8.92,3.3-8.92.29-.75.5-.72.46.08,0,0-.14,7.46-.14,10.82,0,1.26.11,3.54.46,4.77.2.82.67,1.54,1.33,2.08.65.49,1.47.72,2.3.64.4-.05.79-.19,1.14-.39.49-.3.93-.69,1.29-1.14.79-1.08,1.47-2.23,2.05-3.44,1.33-2.61,4.77-10.71,4.77-10.71.33-.75.54-.68.54.11,0,0-.43,13.61-.43,18.8,0,1.29.25,2.59.72,3.79.41,1.15,1.26,2.1,2.36,2.61,1.2.53,2.59.44,3.73-.21.87-.53,1.58-1.27,2.08-2.15.69-1.2,1.28-2.46,1.76-3.77,1.04-2.69,1.9-5.41,2.76-8.17.85-2.76,8.13-28.72,8.6-30.94.06-.25.09-.5.08-.75-.08-.53-.39-.98-.85-1.22h-.06Z" fill="#ec0041" stroke-width="0"/></g></g></g><g id="g"><path d="M101.34,0c6.21.06,11.53,2.37,15.97,6.92.82.84,1.56,1.78,2.25,2.74.17.24.16.36-.07.54-2.96,2.24-5.9,4.53-8.89,6.73-2.44,1.79-5.78,1.7-8.24-.16-4.96-3.76-9.9-7.54-14.86-11.31-.33-.25-.25-.35,0-.55,3.45-2.75,7.32-4.4,11.65-4.83.36-.04.73-.08,1.09-.09.36-.02.73,0,1.1,0Z" fill="#121d2e" stroke-width="0"/><path d="M87.17,42.11c1.78-1.36,3.52-2.69,5.26-4.01,3.22-2.46,6.45-4.91,9.67-7.37,2.73-2.09,6.16-2.13,8.9-.06,2.8,2.12,5.59,4.26,8.39,6.38.31.24.33.38.1.7-3.89,5.32-8.96,8.54-15.32,9.39-6.08.81-11.58-.78-16.5-4.62-.16-.12-.31-.26-.5-.41Z" fill="#121d2e" stroke-width="0"/><path d="M78.73,23.57c.03-4.91,1.39-9.47,4.14-13.59.29-.44.48-.41.86-.13,4.86,3.72,9.73,7.43,14.6,11.13,1.44,1.1,1.89,2.52,1.23,3.98-.23.5-.57.89-.99,1.21-4.94,3.76-9.89,7.52-14.82,11.3-.39.3-.59.32-.89-.14-2.71-4.11-4.09-8.65-4.12-13.76Z" fill="#4890cd" stroke-width="0"/><path d="M122.45,32.1c-1.91-1.46-3.76-2.86-5.6-4.27-.59-.45-1.19-.89-1.77-1.35-1.84-1.46-1.87-4.17-.02-5.61,2.33-1.82,4.7-3.58,7.04-5.39.41-.31.43-.04.52.24,1.62,4.9,1.73,9.84.33,14.81-.14.49-.31.98-.49,1.56Z" fill="#121d2e" stroke-width="0"/></g></g></svg>